<svg width="120" height="120" viewBox="0 0 120 120" fill="none" xmlns="http://www.w3.org/2000/svg">
<rect width="120" height="120" fill="#1E1E1E"/>
<path d="M18.6114 70.224C17.2861 70.224 16.1474 69.944 15.1954 69.384C14.2434 68.824 13.5154 67.9747 13.0114 66.836C12.5074 65.6787 12.2554 64.2227 12.2554 62.468C12.2554 60.6947 12.5167 59.2387 13.0394 58.1C13.5807 56.9613 14.3274 56.112 15.2794 55.552C16.2314 54.992 17.3421 54.712 18.6114 54.712C20.0301 54.712 21.2994 55.0293 22.4194 55.664C23.5581 56.2987 24.4541 57.1947 25.1074 58.352C25.7794 59.5093 26.1154 60.8813 26.1154 62.468C26.1154 64.036 25.7794 65.3987 25.1074 66.556C24.4541 67.7133 23.5581 68.6187 22.4194 69.272C21.2994 69.9067 20.0301 70.224 18.6114 70.224ZM9.70741 70V49.224H14.0754V57.988L13.7954 62.44L13.8794 66.92V70H9.70741ZM17.8554 66.64C18.5834 66.64 19.2274 66.472 19.7874 66.136C20.3661 65.8 20.8234 65.324 21.1594 64.708C21.5141 64.0733 21.6914 63.3267 21.6914 62.468C21.6914 61.5907 21.5141 60.844 21.1594 60.228C20.8234 59.612 20.3661 59.136 19.7874 58.8C19.2274 58.464 18.5834 58.296 17.8554 58.296C17.1274 58.296 16.4741 58.464 15.8954 58.8C15.3167 59.136 14.8594 59.612 14.5234 60.228C14.1874 60.844 14.0194 61.5907 14.0194 62.468C14.0194 63.3267 14.1874 64.0733 14.5234 64.708C14.8594 65.324 15.3167 65.8 15.8954 66.136C16.4741 66.472 17.1274 66.64 17.8554 66.64ZM38.0333 70V67.06L37.7533 66.416V61.152C37.7533 60.2187 37.464 59.4907 36.8853 58.968C36.3253 58.4453 35.4573 58.184 34.2813 58.184C33.4787 58.184 32.6853 58.3147 31.9013 58.576C31.136 58.8187 30.4827 59.1547 29.9413 59.584L28.3733 56.532C29.1947 55.9533 30.184 55.5053 31.3413 55.188C32.4987 54.8707 33.6747 54.712 34.8693 54.712C37.1653 54.712 38.948 55.2533 40.2173 56.336C41.4867 57.4187 42.1213 59.108 42.1213 61.404V70H38.0333ZM33.4413 70.224C32.2653 70.224 31.2573 70.028 30.4173 69.636C29.5773 69.2253 28.9333 68.6747 28.4853 67.984C28.0373 67.2933 27.8133 66.5187 27.8133 65.66C27.8133 64.764 28.028 63.98 28.4573 63.308C28.9053 62.636 29.6053 62.1133 30.5573 61.74C31.5093 61.348 32.7507 61.152 34.2813 61.152H38.2853V63.7H34.7573C33.7307 63.7 33.0213 63.868 32.6293 64.204C32.256 64.54 32.0693 64.96 32.0693 65.464C32.0693 66.024 32.284 66.472 32.7133 66.808C33.1613 67.1253 33.768 67.284 34.5333 67.284C35.2613 67.284 35.9147 67.116 36.4933 66.78C37.072 66.4253 37.492 65.912 37.7533 65.24L38.4253 67.256C38.108 68.2267 37.5293 68.964 36.6893 69.468C35.8493 69.972 34.7667 70.224 33.4413 70.224ZM46.0746 70V54.936H50.2466V59.192L49.6586 57.96C50.1066 56.896 50.8253 56.0933 51.8146 55.552C52.8039 54.992 54.0079 54.712 55.4266 54.712V58.744C55.2399 58.7253 55.0719 58.716 54.9226 58.716C54.7733 58.6973 54.6146 58.688 54.4466 58.688C53.2519 58.688 52.2813 59.0333 51.5346 59.724C50.8066 60.396 50.4426 61.4507 50.4426 62.888V70H46.0746ZM64.3824 70.224C62.9638 70.224 61.6851 69.9067 60.5464 69.272C59.4078 68.6187 58.5024 67.7133 57.8304 66.556C57.1771 65.3987 56.8504 64.036 56.8504 62.468C56.8504 60.8813 57.1771 59.5093 57.8304 58.352C58.5024 57.1947 59.4078 56.2987 60.5464 55.664C61.6851 55.0293 62.9638 54.712 64.3824 54.712C65.6518 54.712 66.7624 54.992 67.7144 55.552C68.6664 56.112 69.4038 56.9613 69.9264 58.1C70.4491 59.2387 70.7104 60.6947 70.7104 62.468C70.7104 64.2227 70.4584 65.6787 69.9544 66.836C69.4504 67.9747 68.7224 68.824 67.7704 69.384C66.8371 69.944 65.7078 70.224 64.3824 70.224ZM65.1384 66.64C65.8478 66.64 66.4918 66.472 67.0704 66.136C67.6491 65.8 68.1064 65.324 68.4424 64.708C68.7971 64.0733 68.9744 63.3267 68.9744 62.468C68.9744 61.5907 68.7971 60.844 68.4424 60.228C68.1064 59.612 67.6491 59.136 67.0704 58.8C66.4918 58.464 65.8478 58.296 65.1384 58.296C64.4104 58.296 63.7571 58.464 63.1784 58.8C62.5998 59.136 62.1331 59.612 61.7784 60.228C61.4424 60.844 61.2744 61.5907 61.2744 62.468C61.2744 63.3267 61.4424 64.0733 61.7784 64.708C62.1331 65.324 62.5998 65.8 63.1784 66.136C63.7571 66.472 64.4104 66.64 65.1384 66.64ZM69.0864 70V66.92L69.1704 62.44L68.8904 57.988V49.224H73.2584V70H69.0864ZM84.7772 70.224C83.0598 70.224 81.5478 69.888 80.2412 69.216C78.9532 68.544 77.9545 67.6293 77.2452 66.472C76.5358 65.296 76.1812 63.9613 76.1812 62.468C76.1812 60.956 76.5265 59.6213 77.2172 58.464C77.9265 57.288 78.8878 56.3733 80.1012 55.72C81.3145 55.048 82.6865 54.712 84.2172 54.712C85.6918 54.712 87.0172 55.0293 88.1932 55.664C89.3878 56.28 90.3305 57.176 91.0212 58.352C91.7118 59.5093 92.0572 60.9 92.0572 62.524C92.0572 62.692 92.0478 62.888 92.0292 63.112C92.0105 63.3173 91.9918 63.5133 91.9732 63.7H79.7372V61.152H89.6772L87.9972 61.908C87.9972 61.124 87.8385 60.4427 87.5212 59.864C87.2038 59.2853 86.7652 58.8373 86.2052 58.52C85.6452 58.184 84.9918 58.016 84.2452 58.016C83.4985 58.016 82.8358 58.184 82.2572 58.52C81.6972 58.8373 81.2585 59.2947 80.9412 59.892C80.6238 60.4707 80.4652 61.1613 80.4652 61.964V62.636C80.4652 63.4573 80.6425 64.1853 80.9972 64.82C81.3705 65.436 81.8838 65.912 82.5372 66.248C83.2092 66.5653 83.9932 66.724 84.8892 66.724C85.6918 66.724 86.3918 66.6027 86.9892 66.36C87.6052 66.1173 88.1652 65.7533 88.6692 65.268L90.9932 67.788C90.3025 68.572 89.4345 69.1787 88.3892 69.608C87.3438 70.0187 86.1398 70.224 84.7772 70.224ZM104.121 54.712C105.316 54.712 106.38 54.9547 107.313 55.44C108.265 55.9067 109.012 56.6347 109.553 57.624C110.095 58.5947 110.365 59.8453 110.365 61.376V70H105.997V62.048C105.997 60.8347 105.727 59.9387 105.185 59.36C104.663 58.7813 103.916 58.492 102.945 58.492C102.255 58.492 101.629 58.6413 101.069 58.94C100.528 59.22 100.099 59.6587 99.7812 60.256C99.4826 60.8533 99.3332 61.6187 99.3332 62.552V70H94.9652V54.936H99.1372V59.108L98.3532 57.848C98.8946 56.84 99.6692 56.0653 100.677 55.524C101.685 54.9827 102.833 54.712 104.121 54.712Z" fill="white"/>
</svg>
